<?xml version="1.0" standalone="no"?>
<!DOCTYPE svg PUBLIC "-//W3C//DTD SVG 20010904//EN"
 "http://www.w3.org/TR/2001/REC-SVG-20010904/DTD/svg10.dtd">
<svg version="1.0" xmlns="http://www.w3.org/2000/svg"
 width="512.000000pt" height="512.000000pt" viewBox="0 0 512.000000 512.000000"
 preserveAspectRatio="xMidYMid meet">

<g transform="translate(0.000000,512.000000) scale(0.100000,-0.100000)"
fill="#000000" stroke="none">
<path d="M2345 4030 c-389 -82 -700 -322 -877 -675 -76 -150 -116 -309 -125
-487 -6 -123 2 -186 39 -313 110 -381 510 -970 1077 -1588 l126 -137 102 104
c372 385 780 929 971 1294 154 295 201 490 173 718 -68 552 -473 984 -1020
1088 -118 23 -349 20 -466 -4z m373 -175 c278 -26 587 -214 746 -454 163 -245
225 -551 155 -776 -86 -282 -310 -651 -656 -1082 -119 -149 -359 -426 -371
-431 -19 -6 -345 383 -537 638 -344 462 -525 828 -525 1065 0 343 193 692 488
882 134 86 310 147 467 162 88 8 104 8 233 -4z"/>
<path d="M2432 3446 c-101 -25 -201 -83 -283 -165 -128 -128 -189 -271 -189
-443 0 -118 14 -176 67 -287 156 -325 568 -448 882 -264 129 76 238 213 284
358 18 58 22 92 21 195 0 114 -3 132 -31 206 -75 199 -239 349 -438 399 -72
18 -239 18 -313 1z m273 -188 c102 -26 210 -111 268 -210 151 -260 -13 -599
-317 -651 -112 -19 -248 17 -341 90 -153 119 -209 351 -129 523 44 94 120 172
209 216 105 52 195 61 310 32z"/>
</g>
</svg>
